<mxfile host="app.diagrams.net" modified="2025-07-26T10:00:00.000Z" agent="5.0" etag="v1.0" version="24.7.6">
  <diagram name="Network Security Architecture" id="network-security">
    <mxGraphModel dx="1422" dy="794" grid="1" gridSize="10" guides="1" tooltips="1" connect="1" arrows="1" fold="1" page="1" pageScale="1" pageWidth="1654" pageHeight="1169" math="0" shadow="0">
      <root>
        <mxCell id="0"/>
        <mxCell id="1" parent="0"/>
        
        <!-- Title -->
        <mxCell id="2" value="Vehicle Tracking System - Network &amp; Security Architecture" style="text;html=1;strokeColor=none;fillColor=none;align=center;verticalAlign=middle;whiteSpace=wrap;rounded=0;fontSize=18;fontStyle=1;fontColor=#232F3E;" vertex="1" parent="1">
          <mxGeometry x="500" y="20" width="600" height="30" as="geometry"/>
        </mxCell>
        
        <!-- Internet -->
        <mxCell id="3" value="Internet" style="ellipse;shape=cloud;whiteSpace=wrap;html=1;fillColor=#E1F5FE;strokeColor=#0277BD;fontSize=14;fontStyle=1;" vertex="1" parent="1">
          <mxGeometry x="50" y="80" width="150" height="80" as="geometry"/>
        </mxCell>
        
        <!-- AWS Cloud Container -->
        <mxCell id="4" value="AWS Cloud - us-east-1 Region" style="rounded=1;whiteSpace=wrap;html=1;fillColor=#FFF3E0;strokeColor=#FF6F00;fontSize=16;fontStyle=1;verticalAlign=top;" vertex="1" parent="1">
          <mxGeometry x="280" y="60" width="1300" height="900" as="geometry"/>
        </mxCell>
        
        <!-- CloudFront -->
        <mxCell id="5" value="CloudFront Distribution&#xa;Global CDN" style="rounded=1;whiteSpace=wrap;html=1;fillColor=#FF9800;strokeColor=#F57C00;fontColor=white;" vertex="1" parent="1">
          <mxGeometry x="320" y="100" width="150" height="60" as="geometry"/>
        </mxCell>
        
        <!-- WAF -->
        <mxCell id="6" value="AWS WAF&#xa;Web Application Firewall" style="rounded=1;whiteSpace=wrap;html=1;fillColor=#F44336;strokeColor=#D32F2F;fontColor=white;" vertex="1" parent="1">
          <mxGeometry x="320" y="180" width="150" height="60" as="geometry"/>
        </mxCell>
        
        <!-- VPC Container -->
        <mxCell id="7" value="VPC (10.0.0.0/16)" style="rounded=1;whiteSpace=wrap;html=1;fillColor=#E8F5E8;strokeColor=#4CAF50;fontSize=14;fontStyle=1;verticalAlign=top;" vertex="1" parent="1">
          <mxGeometry x="320" y="280" width="1220" height="650" as="geometry"/>
        </mxCell>
        
        <!-- Internet Gateway -->
        <mxCell id="8" value="Internet Gateway" style="rounded=1;whiteSpace=wrap;html=1;fillColor=#2196F3;strokeColor=#1976D2;fontColor=white;" vertex="1" parent="1">
          <mxGeometry x="520" y="300" width="120" height="50" as="geometry"/>
        </mxCell>
        
        <!-- Public Subnet A -->
        <mxCell id="9" value="Public Subnet AZ-A (10.0.1.0/24)" style="rounded=1;whiteSpace=wrap;html=1;fillColor=#C8E6C9;strokeColor=#4CAF50;fontSize=12;fontStyle=1;verticalAlign=top;" vertex="1" parent="1">
          <mxGeometry x="360" y="380" width="250" height="150" as="geometry"/>
        </mxCell>
        
        <!-- Public Subnet B -->
        <mxCell id="10" value="Public Subnet AZ-B (10.0.2.0/24)" style="rounded=1;whiteSpace=wrap;html=1;fillColor=#C8E6C9;strokeColor=#4CAF50;fontSize=12;fontStyle=1;verticalAlign=top;" vertex="1" parent="1">
          <mxGeometry x="640" y="380" width="250" height="150" as="geometry"/>
        </mxCell>
        
        <!-- NAT Gateway A -->
        <mxCell id="11" value="NAT Gateway A" style="rounded=1;whiteSpace=wrap;html=1;fillColor=#FF9800;strokeColor=#F57C00;fontColor=white;" vertex="1" parent="1">
          <mxGeometry x="400" y="420" width="100" height="40" as="geometry"/>
        </mxCell>
        
        <!-- NAT Gateway B -->
        <mxCell id="12" value="NAT Gateway B" style="rounded=1;whiteSpace=wrap;html=1;fillColor=#FF9800;strokeColor=#F57C00;fontColor=white;" vertex="1" parent="1">
          <mxGeometry x="680" y="420" width="100" height="40" as="geometry"/>
        </mxCell>
        
        <!-- Application Load Balancer -->
        <mxCell id="13" value="Application Load Balancer" style="rounded=1;whiteSpace=wrap;html=1;fillColor=#9C27B0;strokeColor=#7B1FA2;fontColor=white;" vertex="1" parent="1">
          <mxGeometry x="520" y="480" width="120" height="40" as="geometry"/>
        </mxCell>
        
        <!-- Private Subnet A -->
        <mxCell id="14" value="Private Subnet AZ-A (10.0.3.0/24)" style="rounded=1;whiteSpace=wrap;html=1;fillColor=#BBDEFB;strokeColor=#2196F3;fontSize=12;fontStyle=1;verticalAlign=top;" vertex="1" parent="1">
          <mxGeometry x="360" y="560" width="250" height="120" as="geometry"/>
        </mxCell>
        
        <!-- Private Subnet B -->
        <mxCell id="15" value="Private Subnet AZ-B (10.0.4.0/24)" style="rounded=1;whiteSpace=wrap;html=1;fillColor=#BBDEFB;strokeColor=#2196F3;fontSize=12;fontStyle=1;verticalAlign=top;" vertex="1" parent="1">
          <mxGeometry x="640" y="560" width="250" height="120" as="geometry"/>
        </mxCell>
        
        <!-- Lambda Functions -->
        <mxCell id="16" value="Lambda Functions" style="rounded=1;whiteSpace=wrap;html=1;fillColor=#FF5722;strokeColor=#D84315;fontColor=white;" vertex="1" parent="1">
          <mxGeometry x="380" y="590" width="100" height="30" as="geometry"/>
        </mxCell>
        
        <mxCell id="17" value="Sales APIs" style="rounded=1;whiteSpace=wrap;html=1;fillColor=#4CAF50;strokeColor=#2E7D32;fontColor=white;" vertex="1" parent="1">
          <mxGeometry x="490" y="590" width="100" height="30" as="geometry"/>
        </mxCell>
        
        <mxCell id="18" value="Fleet Dashboard" style="rounded=1;whiteSpace=wrap;html=1;fillColor=#FF5722;strokeColor=#D84315;fontColor=white;" vertex="1" parent="1">
          <mxGeometry x="660" y="590" width="100" height="30" as="geometry"/>
        </mxCell>
        
        <mxCell id="19" value="Video Processor" style="rounded=1;whiteSpace=wrap;html=1;fillColor=#FF5722;strokeColor=#D84315;fontColor=white;" vertex="1" parent="1">
          <mxGeometry x="770" y="590" width="100" height="30" as="geometry"/>
        </mxCell>
        
        <!-- Database Subnet A -->
        <mxCell id="20" value="Database Subnet AZ-A (10.0.5.0/24)" style="rounded=1;whiteSpace=wrap;html=1;fillColor=#F3E5F5;strokeColor=#9C27B0;fontSize=12;fontStyle=1;verticalAlign=top;" vertex="1" parent="1">
          <mxGeometry x="360" y="720" width="250" height="100" as="geometry"/>
        </mxCell>
        
        <!-- Database Subnet B -->
        <mxCell id="21" value="Database Subnet AZ-B (10.0.6.0/24)" style="rounded=1;whiteSpace=wrap;html=1;fillColor=#F3E5F5;strokeColor=#9C27B0;fontSize=12;fontStyle=1;verticalAlign=top;" vertex="1" parent="1">
          <mxGeometry x="640" y="720" width="250" height="100" as="geometry"/>
        </mxCell>
        
        <!-- ElastiCache -->
        <mxCell id="22" value="ElastiCache Redis Primary" style="rounded=1;whiteSpace=wrap;html=1;fillColor=#FF5722;strokeColor=#D84315;fontColor=white;" vertex="1" parent="1">
          <mxGeometry x="380" y="760" width="120" height="40" as="geometry"/>
        </mxCell>
        
        <mxCell id="23" value="ElastiCache Redis Replica" style="rounded=1;whiteSpace=wrap;html=1;fillColor=#FF5722;strokeColor=#D84315;fontColor=white;" vertex="1" parent="1">
          <mxGeometry x="660" y="760" width="120" height="40" as="geometry"/>
        </mxCell>
        
        <!-- Managed Services -->
        <mxCell id="24" value="AWS Managed Services" style="rounded=1;whiteSpace=wrap;html=1;fillColor=#FFF8E1;strokeColor=#FFC107;fontSize=14;fontStyle=1;verticalAlign=top;" vertex="1" parent="1">
          <mxGeometry x="950" y="300" width="550" height="600" as="geometry"/>
        </mxCell>
        
        <!-- DynamoDB -->
        <mxCell id="25" value="DynamoDB Tables (13 tables)" style="rounded=1;whiteSpace=wrap;html=1;fillColor=#2196F3;strokeColor=#1976D2;fontColor=white;" vertex="1" parent="1">
          <mxGeometry x="980" y="340" width="120" height="60" as="geometry"/>
        </mxCell>
        
        <!-- S3 -->
        <mxCell id="26" value="S3 Buckets (6 buckets)" style="rounded=1;whiteSpace=wrap;html=1;fillColor=#4CAF50;strokeColor=#2E7D32;fontColor=white;" vertex="1" parent="1">
          <mxGeometry x="1120" y="340" width="120" height="60" as="geometry"/>
        </mxCell>
        
        <!-- API Gateway -->
        <mxCell id="27" value="API Gateway REST API" style="rounded=1;whiteSpace=wrap;html=1;fillColor=#9C27B0;strokeColor=#7B1FA2;fontColor=white;" vertex="1" parent="1">
          <mxGeometry x="980" y="420" width="120" height="60" as="geometry"/>
        </mxCell>
        
        <!-- Cognito -->
        <mxCell id="28" value="Cognito User Pools" style="rounded=1;whiteSpace=wrap;html=1;fillColor=#FF9800;strokeColor=#F57C00;fontColor=white;" vertex="1" parent="1">
          <mxGeometry x="1120" y="420" width="120" height="60" as="geometry"/>
        </mxCell>
        
        <!-- IoT Core -->
        <mxCell id="29" value="IoT Core MQTT Broker" style="rounded=1;whiteSpace=wrap;html=1;fillColor=#607D8B;strokeColor=#455A64;fontColor=white;" vertex="1" parent="1">
          <mxGeometry x="980" y="500" width="120" height="60" as="geometry"/>
        </mxCell>
        
        <!-- Kinesis -->
        <mxCell id="30" value="Kinesis Data Streams" style="rounded=1;whiteSpace=wrap;html=1;fillColor=#E91E63;strokeColor=#C2185B;fontColor=white;" vertex="1" parent="1">
          <mxGeometry x="1120" y="500" width="120" height="60" as="geometry"/>
        </mxCell>
        
        <!-- SNS -->
        <mxCell id="31" value="SNS Topics Notifications" style="rounded=1;whiteSpace=wrap;html=1;fillColor=#9C27B0;strokeColor=#7B1FA2;fontColor=white;" vertex="1" parent="1">
          <mxGeometry x="980" y="580" width="120" height="60" as="geometry"/>
        </mxCell>
        
        <!-- CloudWatch -->
        <mxCell id="32" value="CloudWatch Monitoring" style="rounded=1;whiteSpace=wrap;html=1;fillColor=#F44336;strokeColor=#D32F2F;fontColor=white;" vertex="1" parent="1">
          <mxGeometry x="1120" y="580" width="120" height="60" as="geometry"/>
        </mxCell>
        
        <!-- Rekognition -->
        <mxCell id="33" value="Rekognition AI Analysis" style="rounded=1;whiteSpace=wrap;html=1;fillColor=#FF9800;strokeColor=#F57C00;fontColor=white;" vertex="1" parent="1">
          <mxGeometry x="980" y="660" width="120" height="60" as="geometry"/>
        </mxCell>
        
        <!-- Security Groups Info -->
        <mxCell id="34" value="Security Groups &amp; NACLs" style="rounded=1;whiteSpace=wrap;html=1;fillColor=#FFEBEE;strokeColor=#F44336;fontSize=14;fontStyle=1;verticalAlign=top;" vertex="1" parent="1">
          <mxGeometry x="1280" y="340" width="200" height="200" as="geometry"/>
        </mxCell>
        
        <mxCell id="35" value="Web-SG: Port 80,443" style="rounded=1;whiteSpace=wrap;html=1;fillColor=#F44336;strokeColor=#D32F2F;fontColor=white;fontSize=11;" vertex="1" parent="1">
          <mxGeometry x="1300" y="380" width="160" height="30" as="geometry"/>
        </mxCell>
        
        <mxCell id="36" value="App-SG: Port 8080" style="rounded=1;whiteSpace=wrap;html=1;fillColor=#F44336;strokeColor=#D32F2F;fontColor=white;fontSize=11;" vertex="1" parent="1">
          <mxGeometry x="1300" y="420" width="160" height="30" as="geometry"/>
        </mxCell>
        
        <mxCell id="37" value="DB-SG: Port 6379" style="rounded=1;whiteSpace=wrap;html=1;fillColor=#F44336;strokeColor=#D32F2F;fontColor=white;fontSize=11;" vertex="1" parent="1">
          <mxGeometry x="1300" y="460" width="160" height="30" as="geometry"/>
        </mxCell>
        
        <mxCell id="38" value="Lambda-SG: Outbound only" style="rounded=1;whiteSpace=wrap;html=1;fillColor=#F44336;strokeColor=#D32F2F;fontColor=white;fontSize=11;" vertex="1" parent="1">
          <mxGeometry x="1300" y="500" width="160" height="30" as="geometry"/>
        </mxCell>
        
        <!-- IAM Section -->
        <mxCell id="39" value="IAM Roles &amp; Policies" style="rounded=1;whiteSpace=wrap;html=1;fillColor=#E8F5E8;strokeColor=#4CAF50;fontSize=14;fontStyle=1;verticalAlign=top;" vertex="1" parent="1">
          <mxGeometry x="1280" y="580" width="200" height="200" as="geometry"/>
        </mxCell>
        
        <mxCell id="40" value="Lambda Execution Role" style="rounded=1;whiteSpace=wrap;html=1;fillColor=#4CAF50;strokeColor=#2E7D32;fontColor=white;fontSize=11;" vertex="1" parent="1">
          <mxGeometry x="1300" y="620" width="160" height="30" as="geometry"/>
        </mxCell>
        
        <mxCell id="41" value="API Gateway Role" style="rounded=1;whiteSpace=wrap;html=1;fillColor=#4CAF50;strokeColor=#2E7D32;fontColor=white;fontSize=11;" vertex="1" parent="1">
          <mxGeometry x="1300" y="660" width="160" height="30" as="geometry"/>
        </mxCell>
        
        <mxCell id="42" value="IoT Core Role" style="rounded=1;whiteSpace=wrap;html=1;fillColor=#4CAF50;strokeColor=#2E7D32;fontColor=white;fontSize=11;" vertex="1" parent="1">
          <mxGeometry x="1300" y="700" width="160" height="30" as="geometry"/>
        </mxCell>
        
        <mxCell id="43" value="Sales Lambda Role" style="rounded=1;whiteSpace=wrap;html=1;fillColor=#4CAF50;strokeColor=#2E7D32;fontColor=white;fontSize=11;" vertex="1" parent="1">
          <mxGeometry x="1300" y="740" width="160" height="30" as="geometry"/>
        </mxCell>
        
        <!-- Compliance Info -->
        <mxCell id="44" value="Compliance &amp; Security Standards" style="rounded=1;whiteSpace=wrap;html=1;fillColor=#E3F2FD;strokeColor=#2196F3;fontSize=14;fontStyle=1;verticalAlign=top;" vertex="1" parent="1">
          <mxGeometry x="50" y="200" width="200" height="150" as="geometry"/>
        </mxCell>
        
        <mxCell id="45" value="• SOC 2 Type II Ready&#xa;• GDPR Compliant&#xa;• ISO 27001 Controls&#xa;• PCI DSS Ready&#xa;• HIPAA Compatible" style="text;html=1;strokeColor=none;fillColor=none;align=left;verticalAlign=top;whiteSpace=wrap;rounded=0;fontSize=11;" vertex="1" parent="1">
          <mxGeometry x="60" y="240" width="180" height="100" as="geometry"/>
        </mxCell>
        
        <!-- Network Performance -->
        <mxCell id="46" value="Network Performance" style="rounded=1;whiteSpace=wrap;html=1;fillColor=#FFF8E1;strokeColor=#FFC107;fontSize=14;fontStyle=1;verticalAlign=top;" vertex="1" parent="1">
          <mxGeometry x="50" y="370" width="200" height="120" as="geometry"/>
        </mxCell>
        
        <mxCell id="47" value="• Latency: &lt;50ms (CloudFront)&#xa;• Bandwidth: 10 Gbps&#xa;• Availability: 99.99%&#xa;• Global Edge Locations: 400+&#xa;• Auto-scaling: Enabled" style="text;html=1;strokeColor=none;fillColor=none;align=left;verticalAlign=top;whiteSpace=wrap;rounded=0;fontSize=11;" vertex="1" parent="1">
          <mxGeometry x="60" y="410" width="180" height="70" as="geometry"/>
        </mxCell>
        
        <!-- Network Flow Arrows -->
        <mxCell id="48" style="edgeStyle=orthogonalEdgeStyle;rounded=0;orthogonalLoop=1;jettySize=auto;html=1;strokeWidth=3;strokeColor=#0277BD;endArrow=block;endFill=1;" edge="1" parent="1" source="3" target="5">
          <mxGeometry relative="1" as="geometry"/>
        </mxCell>
        
        <mxCell id="49" style="edgeStyle=orthogonalEdgeStyle;rounded=0;orthogonalLoop=1;jettySize=auto;html=1;strokeWidth=2;strokeColor=#FF9800;endArrow=block;endFill=1;" edge="1" parent="1" source="5" target="6">
          <mxGeometry relative="1" as="geometry"/>
        </mxCell>
        
        <mxCell id="50" style="edgeStyle=orthogonalEdgeStyle;rounded=0;orthogonalLoop=1;jettySize=auto;html=1;strokeWidth=2;strokeColor=#F44336;endArrow=block;endFill=1;" edge="1" parent="1" source="6" target="8">
          <mxGeometry relative="1" as="geometry"/>
        </mxCell>
        
        <mxCell id="51" style="edgeStyle=orthogonalEdgeStyle;rounded=0;orthogonalLoop=1;jettySize=auto;html=1;strokeWidth=2;strokeColor=#2196F3;endArrow=block;endFill=1;" edge="1" parent="1" source="8" target="13">
          <mxGeometry relative="1" as="geometry"/>
        </mxCell>
        
        <mxCell id="52" style="edgeStyle=orthogonalEdgeStyle;rounded=0;orthogonalLoop=1;jettySize=auto;html=1;strokeWidth=2;strokeColor=#9C27B0;endArrow=block;endFill=1;" edge="1" parent="1" source="13" target="16">
          <mxGeometry relative="1" as="geometry"/>
        </mxCell>
        
        <mxCell id="53" style="edgeStyle=orthogonalEdgeStyle;rounded=0;orthogonalLoop=1;jettySize=auto;html=1;strokeWidth=2;strokeColor=#FF5722;endArrow=block;endFill=1;" edge="1" parent="1" source="16" target="22">
          <mxGeometry relative="1" as="geometry"/>
        </mxCell>
        
        <mxCell id="54" style="edgeStyle=orthogonalEdgeStyle;rounded=0;orthogonalLoop=1;jettySize=auto;html=1;strokeWidth=2;strokeColor=#4CAF50;endArrow=block;endFill=1;" edge="1" parent="1" source="17" target="25">
          <mxGeometry relative="1" as="geometry"/>
        </mxCell>
        
        <!-- Security Labels -->
        <mxCell id="55" value="HTTPS/TLS 1.3" style="text;html=1;strokeColor=none;fillColor=none;align=center;verticalAlign=middle;whiteSpace=wrap;rounded=0;fontSize=10;fontColor=#0277BD;fontStyle=2;" vertex="1" parent="1">
          <mxGeometry x="200" y="100" width="80" height="20" as="geometry"/>
        </mxCell>
        
        <mxCell id="56" value="DDoS Protection" style="text;html=1;strokeColor=none;fillColor=none;align=center;verticalAlign=middle;whiteSpace=wrap;rounded=0;fontSize=10;fontColor=#F44336;fontStyle=2;" vertex="1" parent="1">
          <mxGeometry x="480" y="200" width="80" height="20" as="geometry"/>
        </mxCell>
        
        <mxCell id="57" value="Private Network" style="text;html=1;strokeColor=none;fillColor=none;align=center;verticalAlign=middle;whiteSpace=wrap;rounded=0;fontSize=10;fontColor=#4CAF50;fontStyle=2;" vertex="1" parent="1">
          <mxGeometry x="680" y="300" width="80" height="20" as="geometry"/>
        </mxCell>
        
        <mxCell id="58" value="Encryption at Rest" style="text;html=1;strokeColor=none;fillColor=none;align=center;verticalAlign=middle;whiteSpace=wrap;rounded=0;fontSize=10;fontColor=#2196F3;fontStyle=2;" vertex="1" parent="1">
          <mxGeometry x="1250" y="320" width="100" height="20" as="geometry"/>
        </mxCell>
        
      </root>
    </mxGraphModel>
  </diagram>
</mxfile>
